<svg width="31" height="28" viewBox="0 0 31 28" fill="none" xmlns="http://www.w3.org/2000/svg">
<path id="Vector" d="M29.8869 4.6678L29.8787 4.66176L29.8698 4.65658L29.3863 4.37294L29.3863 4.37288L29.3816 4.37026C25.1454 2.03771 20.3736 0.8 15.5044 0.8C10.6351 0.8 5.86264 2.03775 1.62568 4.41837L1.62566 4.41833L1.62245 4.42022L1.13892 4.70385C0.979003 4.79766 0.87002 4.93187 0.824091 5.09352C0.779022 5.25214 0.800307 5.41686 0.861591 5.56664L0.86129 5.56677L0.866205 5.57706L4.25095 12.668L4.25756 12.6818L4.2662 12.6945C4.39454 12.8827 4.59768 13.0182 4.86662 13.0182H4.8691C4.89322 13.0182 4.94302 13.0182 4.99549 13.0097C5.03677 13.0029 5.10364 12.9875 5.16453 12.9436C5.49441 12.801 5.79698 12.6857 6.11722 12.5759V24.6364C6.11722 24.8221 6.18221 25.0321 6.38801 25.1731C6.42032 25.2008 6.47674 25.2428 6.55157 25.293C6.64733 25.3573 6.78365 25.4421 6.96331 25.5402C7.32272 25.7364 7.85626 25.9863 8.58643 26.2323C10.0471 26.7243 12.2931 27.2 15.5044 27.2C18.7157 27.2 20.9617 26.7243 22.4223 26.2323C23.1525 25.9863 23.686 25.7364 24.0455 25.5402C24.2251 25.4421 24.3614 25.3573 24.4572 25.293C24.5478 25.2322 24.6114 25.1835 24.6379 25.1576C24.7473 25.0506 24.8915 24.8597 24.8915 24.6364V12.5788C25.0684 12.643 25.242 12.7115 25.4135 12.7791C25.5603 12.837 25.7056 12.8942 25.85 12.9477C25.9093 12.9885 25.9733 13.0032 26.0133 13.0097C26.0657 13.0182 26.1155 13.0182 26.1397 13.0182H26.1421C26.2729 13.0182 26.3965 12.9857 26.5052 12.9148C26.6129 12.8446 26.6947 12.7442 26.7554 12.6256L26.7555 12.6256L26.7578 12.6207L30.1415 5.53191C30.219 5.37812 30.2118 5.20356 30.1645 5.05716C30.1164 4.90841 30.0204 4.7657 29.8869 4.6678ZM2.3741 5.53184C5.02977 4.03967 7.95588 3.03166 10.9777 2.5088C11.2781 4.68535 13.1562 6.4 15.5044 6.4C17.8523 6.4 19.7328 4.72924 20.0316 2.5089C23.0526 3.03167 25.9796 4.03944 28.6817 5.53178L25.7989 11.4817C25.6556 11.4307 25.5083 11.3799 25.3621 11.3294L25.3612 11.3291C25.2017 11.2741 25.0436 11.2195 24.8915 11.1651V8.56364V8.36364H24.6915H23.7245H23.5245V8.56364V24.2818C22.7445 24.7038 20.3093 25.8545 15.5044 25.8545C10.6994 25.8545 8.26424 24.7038 7.48429 24.2818V8.56364V8.36364H7.28429H6.31722H6.11722V8.56364V11.1651C5.96515 11.2195 5.80703 11.2741 5.64757 11.3291L5.64667 11.3294C5.50086 11.3797 5.35394 11.4304 5.21094 11.4813L2.3741 5.53184ZM15.5044 2.14545C16.541 2.14545 17.6218 2.22835 18.6725 2.31691C18.4867 3.86205 17.1255 5.05455 15.5044 5.05455C13.8892 5.05455 12.5668 3.86745 12.3416 2.31647C13.3906 2.22807 14.4695 2.14545 15.5044 2.14545Z" fill="white" stroke="white" stroke-width="0.4"/>
</svg>
