<svg width="13" height="10" viewBox="0 0 13 10" fill="none" xmlns="http://www.w3.org/2000/svg">
<path id="Vector" d="M1.03367 1.58346C1.03349 1.58369 1.03331 1.58392 1.03313 1.58415L0.637495 1.27842C-0.24606 2.43001 -0.208424 4.02897 0.733271 5.35212C2.44738 7.76034 5.83741 9.8784 5.98079 9.96728L1.03367 1.58346ZM1.03367 1.58346C0.304658 2.53427 0.306003 3.88948 1.14063 5.06219M1.03367 1.58346C1.30226 1.2361 1.64906 0.957034 2.04584 0.768964C2.44289 0.58077 2.87878 0.489012 3.318 0.50117L3.32092 0.501234C3.7456 0.510498 4.16183 0.621703 4.53454 0.825477C4.90725 1.02925 5.22552 1.31963 5.46253 1.67214L5.46346 1.67351C5.5329 1.77605 5.60011 1.88257 5.66452 1.99217L6.09571 2.72572L6.52669 1.99205C6.59098 1.88261 6.6582 1.77612 6.72768 1.67352L6.72861 1.67214C6.96562 1.31964 7.2839 1.02927 7.65661 0.825505C8.02932 0.621736 8.44554 0.510537 8.87022 0.501291L8.87391 0.501184C9.31299 0.488369 9.74887 0.579776 10.1458 0.767914L10.3592 0.317626L10.1458 0.767914C10.5427 0.956025 10.8894 1.23549 11.1574 1.5834C11.8865 2.53422 11.8851 3.88945 11.0504 5.06208L11.0504 5.06209C10.2356 6.20693 9.00481 7.30314 7.93766 8.13504C7.10752 8.78218 6.3959 9.25446 6.09555 9.44795M1.14063 5.06219C1.14063 5.06219 1.14063 5.06218 1.14062 5.06218L0.733613 5.35187L1.14063 5.06219ZM1.14063 5.06219C1.9555 6.20702 3.18629 7.30323 4.25346 8.13511C5.08367 8.78229 5.79532 9.25457 6.09555 9.44795M6.09555 9.44795C6.01212 9.50169 5.96043 9.53392 5.94674 9.54242L5.94671 9.54244C5.9914 9.5147 6.04296 9.5 6.09557 9.5C6.14819 9.5 6.19974 9.5147 6.24444 9.54244L6.24422 9.5423C6.23058 9.53384 6.17893 9.50165 6.09555 9.44795ZM5.87746 1.39315C5.85039 1.35288 5.82241 1.31329 5.79358 1.2744C5.74946 1.34373 5.70638 1.41417 5.66446 1.48554L5.7048 1.50924L5.70546 1.50963L5.87746 1.39315ZM6.39756 1.27441C6.36873 1.31329 6.34076 1.35288 6.31368 1.39315L6.52662 1.48542C6.48472 1.41413 6.44167 1.34374 6.39756 1.27441Z" stroke="#7D8FAB"/>
</svg>
