<svg width="16" height="16" viewBox="0 0 16 16" fill="none" xmlns="http://www.w3.org/2000/svg">
<g id="star (8) 2">
<g id="Layer 2">
<path id="Vector" d="M4.12002 15C3.99638 15.0004 3.87422 14.9731 3.76245 14.9203C3.65069 14.8674 3.55215 14.7902 3.47404 14.6944C3.39593 14.5985 3.34021 14.4864 3.31097 14.3663C3.28173 14.2462 3.2797 14.121 3.30502 14L3.97002 10.11L1.14502 7.365C1.03433 7.25687 0.956075 7.11995 0.919084 6.96969C0.882093 6.81944 0.887842 6.66184 0.935682 6.51468C0.983522 6.36752 1.07155 6.23666 1.18982 6.13688C1.3081 6.0371 1.45191 5.97237 1.60502 5.95L5.50002 5.385L7.24502 1.845C7.31232 1.70304 7.41852 1.5831 7.55128 1.49911C7.68405 1.41512 7.83792 1.37053 7.99502 1.37053C8.15212 1.37053 8.306 1.41512 8.43876 1.49911C8.57153 1.5831 8.67773 1.70304 8.74502 1.845L10.5 5.385L14.405 5.955C14.5581 5.97737 14.702 6.0421 14.8202 6.14188C14.9385 6.24166 15.0265 6.37252 15.0744 6.51968C15.1222 6.66684 15.128 6.82444 15.091 6.97469C15.054 7.12495 14.9757 7.26187 14.865 7.37L12.04 10.125L12.695 14C12.7211 14.1518 12.7044 14.3078 12.6469 14.4507C12.5893 14.5935 12.4932 14.7176 12.3692 14.8089C12.2452 14.9002 12.0982 14.9552 11.9447 14.9678C11.7912 14.9803 11.6372 14.95 11.5 14.88L8.00002 13.045L4.50002 14.88C4.38506 14.9505 4.25459 14.9917 4.12002 15ZM2.09502 6.89L4.73502 9.465C4.83203 9.55859 4.90462 9.67451 4.94646 9.80264C4.9883 9.93077 4.9981 10.0672 4.97502 10.2L4.35002 13.83L7.61502 12.115C7.73382 12.0528 7.86592 12.0203 8.00002 12.0203C8.13412 12.0203 8.26622 12.0528 8.38502 12.115L11.65 13.83L11.025 10.195C11.0019 10.0622 11.0117 9.92578 11.0536 9.79764C11.0954 9.66951 11.168 9.55359 11.265 9.46L13.905 6.885L10.255 6.355C10.1217 6.33556 9.9952 6.28398 9.88631 6.20471C9.77743 6.12544 9.68947 6.02086 9.63002 5.9L8.00002 2.6L6.37002 5.905C6.31058 6.02586 6.22262 6.13044 6.11373 6.20971C6.00484 6.28898 5.8783 6.34056 5.74502 6.36L2.09502 6.89Z" fill="#FFA902"/>
<path id="Vector_2" d="M8.2951 2.06501L10.0801 5.68501C10.1035 5.73246 10.138 5.77358 10.1806 5.8049C10.2233 5.83623 10.2728 5.85684 10.3251 5.86501L14.3251 6.44501C14.3838 6.45605 14.4384 6.48281 14.4831 6.52245C14.5278 6.56209 14.5609 6.61312 14.5788 6.67009C14.5968 6.72706 14.599 6.78784 14.5851 6.84594C14.5712 6.90404 14.5419 6.95729 14.5001 7.00001L11.6101 9.81501C11.5721 9.85213 11.5436 9.89788 11.5271 9.94837C11.5105 9.99886 11.5064 10.0526 11.5151 10.105L12.1951 14.105C12.2081 14.1685 12.2022 14.2343 12.178 14.2944C12.1539 14.3545 12.1126 14.4062 12.0592 14.4429C12.0059 14.4797 11.943 14.5 11.8782 14.5013C11.8135 14.5025 11.7498 14.4847 11.6951 14.45L8.1251 12.57C8.07801 12.5455 8.0257 12.5327 7.9726 12.5327C7.9195 12.5327 7.86719 12.5455 7.8201 12.57L4.2751 14.435C4.22041 14.4697 4.15672 14.4875 4.09196 14.4863C4.02721 14.485 3.96426 14.4647 3.91095 14.4279C3.85765 14.3912 3.81634 14.3395 3.79219 14.2794C3.76803 14.2193 3.76209 14.1535 3.7751 14.09L4.4551 10.09C4.46378 10.0376 4.45968 9.98386 4.44314 9.93337C4.4266 9.88288 4.39811 9.83713 4.3601 9.80001L1.5001 7.00001C1.45689 6.95711 1.42639 6.9031 1.41197 6.84394C1.39755 6.78478 1.39979 6.72279 1.41842 6.66483C1.43705 6.60686 1.47136 6.55518 1.51754 6.5155C1.56373 6.47582 1.61999 6.44969 1.6801 6.44001L5.6801 5.86001C5.73238 5.85184 5.78192 5.83123 5.82456 5.7999C5.8672 5.76858 5.90168 5.72746 5.9251 5.68001L7.7101 2.06001C7.73847 2.0068 7.78087 1.96239 7.83271 1.93158C7.88454 1.90078 7.94382 1.88477 8.00412 1.88528C8.06441 1.8858 8.12341 1.90282 8.17471 1.93451C8.22601 1.96619 8.26765 2.01133 8.2951 2.06501Z" fill="#FFA902"/>
</g>
</g>
</svg>
