<svg width="45" height="45" viewBox="0 0 45 45" fill="none" xmlns="http://www.w3.org/2000/svg">
<g id="More">
<circle id="Ellipse 1294" cx="22.5" cy="22.5" r="22.5" fill="#ECF0F4"/>
<g id="More_2">
<path id="Vector" d="M22.4092 23.3257C22.9615 23.3257 23.4092 22.878 23.4092 22.3257C23.4092 21.7734 22.9615 21.3257 22.4092 21.3257C21.8569 21.3257 21.4092 21.7734 21.4092 22.3257C21.4092 22.878 21.8569 23.3257 22.4092 23.3257Z" stroke="#181C2E" stroke-width="2" stroke-linecap="round" stroke-linejoin="round"/>
<path id="Vector_2" d="M29.4092 23.3257C29.9615 23.3257 30.4092 22.878 30.4092 22.3257C30.4092 21.7734 29.9615 21.3257 29.4092 21.3257C28.8569 21.3257 28.4092 21.7734 28.4092 22.3257C28.4092 22.878 28.8569 23.3257 29.4092 23.3257Z" stroke="#181C2E" stroke-width="2" stroke-linecap="round" stroke-linejoin="round"/>
<path id="Vector_3" d="M15.4092 23.3257C15.9615 23.3257 16.4092 22.878 16.4092 22.3257C16.4092 21.7734 15.9615 21.3257 15.4092 21.3257C14.8569 21.3257 14.4092 21.7734 14.4092 22.3257C14.4092 22.878 14.8569 23.3257 15.4092 23.3257Z" stroke="#181C2E" stroke-width="2" stroke-linecap="round" stroke-linejoin="round"/>
</g>
</g>
</svg>
